<svg fill="white" height="73" width="73" xmlns="http://www.w3.org/2000/svg" viewBox="0 0 512 512" xml:space="preserve"><path d="M220.125 248.451c-4.075-4.088-10.69-4.097-14.777-.022l-.172.172c-4.087 4.074-4.096 10.69-.022 14.777a10.416 10.416 0 0 0 7.399 3.071 10.42 10.42 0 0 0 7.377-3.049l.173-.172c4.087-4.074 4.097-10.691.022-14.777zM315.784 152.768c-4.081-4.08-10.698-4.08-14.778 0l-71.766 71.766c-4.08 4.081-4.08 10.698 0 14.778a10.413 10.413 0 0 0 7.388 3.06c2.674 0 5.349-1.02 7.389-3.06l71.766-71.766c4.081-4.081 4.081-10.697.001-14.778z"/><path d="m497.046 60.678-45.725-45.725C441.679 5.31 428.86 0 415.223 0c-13.637.001-26.458 5.311-36.099 14.954L60.196 333.88a.008.008 0 0 0 .005.002 10.43 10.43 0 0 0-2.46 3.878L.607 498.042a10.45 10.45 0 0 0 13.351 13.351l160.282-57.134a10.425 10.425 0 0 0 3.877-2.458l.004.004 318.925-318.928C506.689 123.235 512 110.415 512 96.778s-5.31-26.457-14.954-36.1zM160.283 437.049 42.701 478.962l-9.662-9.662 41.914-117.581h33.758l-.001 41.123a10.447 10.447 0 0 0 10.448 10.448l41.125.001v33.758zm20.898-17.858v-26.348c0-5.771-4.678-10.449-10.449-10.449l-41.125-.001.001-41.123a10.45 10.45 0 0 0-10.448-10.448H92.811L332.597 91.034l88.369 88.369-239.785 239.788zm254.563-254.565-88.369-88.369 18.965-18.965.909-.91 88.369 88.369-19.874 19.875zm46.524-46.525-11.873 11.873-88.369-88.369L393.9 29.73c5.696-5.696 13.268-8.833 21.322-8.833s15.626 3.137 21.322 8.833l45.726 45.726c5.695 5.696 8.831 13.267 8.831 21.322s-3.136 15.628-8.833 21.323z"/></svg>